<?xml version="1.0" encoding="utf-8"?>
<!-- Generator: Adobe Illustrator 27.5.0, SVG Export Plug-In . SVG Version: 6.00 Build 0)  -->
<svg version="1.1" xmlns="http://www.w3.org/2000/svg" xmlns:xlink="http://www.w3.org/1999/xlink" x="0px" y="0px"
	 viewBox="0 0 500 499.999" style="enable-background:new 0 0 500 499.999;" xml:space="preserve">
<g id="BACKGROUND">
	<rect x="0" style="fill-rule:evenodd;clip-rule:evenodd;fill:#DBF2EA;" width="500" height="499.999"/>
</g>
<g id="OBJECTS">
	<g>
		<g id="XMLID_1_">
			<rect x="416.69" y="289.281" style="fill:#B6C87F;" width="9.76" height="9.77"/>
			<rect x="406.92" y="299.051" style="fill:#689078;" width="9.771" height="9.891"/>
			<rect x="406.92" y="289.281" style="fill:#83B07F;" width="9.771" height="9.77"/>
			<rect x="397.03" y="328.472" style="fill:#F4F1E8;" width="9.89" height="9.89"/>
			<rect x="397.03" y="318.701" style="fill:#F4F1E8;" width="9.89" height="9.771"/>
			<rect x="397.03" y="308.941" style="fill:#FFFCEA;" width="9.89" height="9.76"/>
			<rect x="397.03" y="299.051" style="fill:#689078;" width="9.89" height="9.891"/>
			<rect x="397.03" y="289.281" style="fill:#83B07F;" width="9.89" height="9.77"/>
			<rect x="397.03" y="279.522" style="fill:#B6C87F;" width="9.89" height="9.76"/>
			<rect x="397.03" y="142.191" style="fill:#E3DBD1;" width="9.89" height="9.89"/>
			<rect x="397.03" y="132.421" style="fill:#FFFCEA;" width="9.89" height="9.771"/>
			<rect x="397.03" y="122.661" style="fill:#FFFCEA;" width="9.89" height="9.76"/>
			<rect x="387.27" y="328.472" style="fill:#E3DBD1;" width="9.76" height="9.89"/>
			<rect x="387.27" y="318.701" style="fill:#F4F1E8;" width="9.76" height="9.771"/>
			<rect x="387.27" y="308.941" style="fill:#F4F1E8;" width="9.76" height="9.76"/>
			<rect x="387.27" y="299.051" style="fill:#689078;" width="9.76" height="9.891"/>
			<rect x="387.27" y="289.281" style="fill:#83B07F;" width="9.76" height="9.77"/>
			<rect x="387.27" y="279.522" style="fill:#B6C87F;" width="9.76" height="9.76"/>
			<rect x="387.27" y="142.191" style="fill:#E3DBD1;" width="9.76" height="9.89"/>
			<rect x="387.27" y="132.421" style="fill:#F4F1E8;" width="9.76" height="9.771"/>
			<rect x="387.27" y="122.661" style="fill:#F4F1E8;" width="9.76" height="9.76"/>
			<rect x="387.27" y="112.771" style="fill:#FFFCEA;" width="9.76" height="9.89"/>
			<rect x="387.27" y="103.001" style="fill:#FFFCEA;" width="9.76" height="9.771"/>
			<rect x="377.5" y="328.472" style="fill:#689078;" width="9.77" height="9.89"/>
			<rect x="377.5" y="318.701" style="fill:#E3DBD1;" width="9.77" height="9.771"/>
			<rect x="377.5" y="308.941" style="fill:#F4F1E8;" width="9.77" height="9.76"/>
			<rect x="377.5" y="299.051" style="fill:#F4F1E8;" width="9.77" height="9.891"/>
			<rect x="377.5" y="289.281" style="fill:#F4F1E8;" width="9.77" height="9.77"/>
			<rect x="377.5" y="279.522" style="fill:#FFFCEA;" width="9.77" height="9.76"/>
			<rect x="377.5" y="269.631" style="fill:#FFFCEA;" width="9.77" height="9.891"/>
			<rect x="377.5" y="230.451" style="fill:#F4F1E8;" width="9.77" height="9.76"/>
			<rect x="377.5" y="220.682" style="fill:#FFFCEA;" width="9.77" height="9.77"/>
			<rect x="377.5" y="132.421" style="fill:#E3DBD1;" width="9.77" height="9.771"/>
			<rect x="377.5" y="122.661" style="fill:#F4F1E8;" width="9.77" height="9.76"/>
			<rect x="377.5" y="112.771" style="fill:#F4F1E8;" width="9.77" height="9.89"/>
			<rect x="377.5" y="103.001" style="fill:#F4F1E8;" width="9.77" height="9.771"/>
			<rect x="377.5" y="93.241" style="fill:#FFFCEA;" width="9.77" height="9.76"/>
			<rect x="377.5" y="83.352" style="fill:#FFFCEA;" width="9.77" height="9.89"/>
			<rect x="367.62" y="338.361" style="fill:#F4F1E8;" width="9.88" height="9.76"/>
			<rect x="367.62" y="328.472" style="fill:#F4F1E8;" width="9.88" height="9.89"/>
			<rect x="367.62" y="318.701" style="fill:#FFFCEA;" width="9.88" height="9.771"/>
			<rect x="367.62" y="308.941" style="fill:#F4F1E8;" width="9.88" height="9.76"/>
			<rect x="367.62" y="299.051" style="fill:#F4F1E8;" width="9.88" height="9.891"/>
			<rect x="367.62" y="289.281" style="fill:#F4F1E8;" width="9.88" height="9.77"/>
			<rect x="367.62" y="279.522" style="fill:#F4F1E8;" width="9.88" height="9.76"/>
			<rect x="367.62" y="269.631" style="fill:#F4F1E8;" width="9.88" height="9.891"/>
			<rect x="367.62" y="259.861" style="fill:#FFFCEA;" width="9.88" height="9.77"/>
			<rect x="367.62" y="240.211" style="fill:#E3DBD1;" width="9.88" height="9.891"/>
			<rect x="367.62" y="230.451" style="fill:#F4F1E8;" width="9.88" height="9.76"/>
			<rect x="367.62" y="220.682" style="fill:#F4F1E8;" width="9.88" height="9.77"/>
			<rect x="367.62" y="210.911" style="fill:#FFFCEA;" width="9.88" height="9.771"/>
			<rect x="367.62" y="152.081" style="fill:#E3DBD1;" width="9.88" height="9.76"/>
			<rect x="367.62" y="142.191" style="fill:#F4F1E8;" width="9.88" height="9.89"/>
			<rect x="367.62" y="132.421" style="fill:#FFFCEA;" width="9.88" height="9.771"/>
			<rect x="367.62" y="122.661" style="fill:#F4F1E8;" width="9.88" height="9.76"/>
			<rect x="367.62" y="112.771" style="fill:#F4F1E8;" width="9.88" height="9.89"/>
			<rect x="367.62" y="103.001" style="fill:#F4F1E8;" width="9.88" height="9.771"/>
			<rect x="367.62" y="93.241" style="fill:#F4F1E8;" width="9.88" height="9.76"/>
			<rect x="367.62" y="83.352" style="fill:#F4F1E8;" width="9.88" height="9.89"/>
			<rect x="357.851" y="338.361" style="fill:#E3DBD1;" width="9.769" height="9.76"/>
			<rect x="357.851" y="328.472" style="fill:#E3DBD1;" width="9.769" height="9.89"/>
			<rect x="357.851" y="318.701" style="fill:#F4F1E8;" width="9.769" height="9.771"/>
			<rect x="357.851" y="308.941" style="fill:#F4F1E8;" width="9.769" height="9.76"/>
			<rect x="357.851" y="299.051" style="fill:#F4F1E8;" width="9.769" height="9.891"/>
			<rect x="357.851" y="289.281" style="fill:#F4F1E8;" width="9.769" height="9.77"/>
			<rect x="357.851" y="279.522" style="fill:#F4F1E8;" width="9.769" height="9.76"/>
			<rect x="357.851" y="269.631" style="fill:#F4F1E8;" width="9.769" height="9.891"/>
			<rect x="357.851" y="259.861" style="fill:#F4F1E8;" width="9.769" height="9.77"/>
			<rect x="357.851" y="250.102" style="fill:#FFFCEA;" width="9.769" height="9.76"/>
			<rect x="357.851" y="240.211" style="fill:#E3DBD1;" width="9.769" height="9.891"/>
			<rect x="357.851" y="230.451" style="fill:#E3DBD1;" width="9.769" height="9.76"/>
			<rect x="357.851" y="220.682" style="fill:#F4F1E8;" width="9.769" height="9.77"/>
			<rect x="357.851" y="210.911" style="fill:#F4F1E8;" width="9.769" height="9.771"/>
			<rect x="357.851" y="201.031" style="fill:#F4F1E8;" width="9.769" height="9.88"/>
			<rect x="357.851" y="191.261" style="fill:#FFFCEA;" width="9.769" height="9.771"/>
			<rect x="357.851" y="181.501" style="fill:#FFFCEA;" width="9.769" height="9.76"/>
			<rect x="357.851" y="152.081" style="fill:#E3DBD1;" width="9.769" height="9.76"/>
			<rect x="357.851" y="142.191" style="fill:#F4F1E8;" width="9.769" height="9.89"/>
			<rect x="357.851" y="132.421" style="fill:#F4F1E8;" width="9.769" height="9.771"/>
			<rect x="357.851" y="122.661" style="fill:#F4F1E8;" width="9.769" height="9.76"/>
			<rect x="357.851" y="112.771" style="fill:#F4F1E8;" width="9.769" height="9.89"/>
			<rect x="357.851" y="103.001" style="fill:#F4F1E8;" width="9.769" height="9.771"/>
			<rect x="357.851" y="93.241" style="fill:#F4F1E8;" width="9.769" height="9.76"/>
			<rect x="357.851" y="83.352" style="fill:#F4F1E8;" width="9.769" height="9.89"/>
			<rect x="357.851" y="73.591" style="fill:#FFFCEA;" width="9.769" height="9.761"/>
			<rect x="348.08" y="338.361" style="fill:#689078;" width="9.771" height="9.76"/>
			<rect x="348.08" y="328.472" style="fill:#E3DBD1;" width="9.771" height="9.89"/>
			<rect x="348.08" y="318.701" style="fill:#F4F1E8;" width="9.771" height="9.771"/>
			<rect x="348.08" y="308.941" style="fill:#F4F1E8;" width="9.771" height="9.76"/>
			<rect x="348.08" y="299.051" style="fill:#F4F1E8;" width="9.771" height="9.891"/>
			<rect x="348.08" y="289.281" style="fill:#F4F1E8;" width="9.771" height="9.77"/>
			<rect x="348.08" y="279.522" style="fill:#F4F1E8;" width="9.771" height="9.76"/>
			<rect x="348.08" y="269.631" style="fill:#F4F1E8;" width="9.771" height="9.891"/>
			<rect x="348.08" y="259.861" style="fill:#F4F1E8;" width="9.771" height="9.77"/>
			<rect x="348.08" y="250.102" style="fill:#F4F1E8;" width="9.771" height="9.76"/>
			<rect x="348.08" y="230.451" style="fill:#E3DBD1;" width="9.771" height="9.76"/>
			<rect x="348.08" y="220.682" style="fill:#F4F1E8;" width="9.771" height="9.77"/>
			<rect x="348.08" y="210.911" style="fill:#F4F1E8;" width="9.771" height="9.771"/>
			<rect x="348.08" y="201.031" style="fill:#F4F1E8;" width="9.771" height="9.88"/>
			<rect x="348.08" y="191.261" style="fill:#F4F1E8;" width="9.771" height="9.771"/>
			<rect x="348.08" y="181.501" style="fill:#F4F1E8;" width="9.771" height="9.76"/>
			<rect x="348.08" y="171.611" style="fill:#FFFCEA;" width="9.771" height="9.89"/>
			<rect x="348.08" y="152.081" style="fill:#E3DBD1;" width="9.771" height="9.76"/>
			<rect x="348.08" y="142.191" style="fill:#F4F1E8;" width="9.771" height="9.89"/>
			<rect x="348.08" y="132.421" style="fill:#F4F1E8;" width="9.771" height="9.771"/>
			<rect x="348.08" y="122.661" style="fill:#F4F1E8;" width="9.771" height="9.76"/>
			<rect x="348.08" y="112.771" style="fill:#F4F1E8;" width="9.771" height="9.89"/>
			<rect x="348.08" y="103.001" style="fill:#F4F1E8;" width="9.771" height="9.771"/>
			<rect x="348.08" y="93.241" style="fill:#F4F1E8;" width="9.771" height="9.76"/>
			<rect x="348.08" y="83.352" style="fill:#F4F1E8;" width="9.771" height="9.89"/>
			<rect x="348.08" y="73.591" style="fill:#F4F1E8;" width="9.771" height="9.761"/>
			<rect x="338.2" y="348.121" style="fill:#689078;" width="9.88" height="9.771"/>
			<rect x="338.2" y="338.361" style="fill:#689078;" width="9.88" height="9.76"/>
			<rect x="338.2" y="318.701" style="fill:#F4F1E8;" width="9.88" height="9.771"/>
			<rect x="338.2" y="308.941" style="fill:#F4F1E8;" width="9.88" height="9.76"/>
			<rect x="338.2" y="299.051" style="fill:#F4F1E8;" width="9.88" height="9.891"/>
			<rect x="338.2" y="289.281" style="fill:#F4F1E8;" width="9.88" height="9.77"/>
			<rect x="338.2" y="279.522" style="fill:#F4F1E8;" width="9.88" height="9.76"/>
			<rect x="338.2" y="269.631" style="fill:#F4F1E8;" width="9.88" height="9.891"/>
			<rect x="338.2" y="259.861" style="fill:#F4F1E8;" width="9.88" height="9.77"/>
			<rect x="338.2" y="240.211" style="fill:#F4F1E8;" width="9.88" height="9.891"/>
			<rect x="338.2" y="230.451" style="fill:#FFFCEA;" width="9.88" height="9.76"/>
			<rect x="338.2" y="220.682" style="fill:#FFFCEA;" width="9.88" height="9.77"/>
			<rect x="338.2" y="210.911" style="fill:#F4F1E8;" width="9.88" height="9.771"/>
			<rect x="338.2" y="201.031" style="fill:#F4F1E8;" width="9.88" height="9.88"/>
			<rect x="338.2" y="191.261" style="fill:#F4F1E8;" width="9.88" height="9.771"/>
			<rect x="338.2" y="181.501" style="fill:#F4F1E8;" width="9.88" height="9.76"/>
			<rect x="338.2" y="171.611" style="fill:#F4F1E8;" width="9.88" height="9.89"/>
			<rect x="338.2" y="161.841" style="fill:#FFFCEA;" width="9.88" height="9.771"/>
			<rect x="338.2" y="142.191" style="fill:#E3DBD1;" width="9.88" height="9.89"/>
			<rect x="338.2" y="132.421" style="fill:#F4F1E8;" width="9.88" height="9.771"/>
			<rect x="338.2" y="122.661" style="fill:#F4F1E8;" width="9.88" height="9.76"/>
			<rect x="338.2" y="112.771" style="fill:#F4F1E8;" width="9.88" height="9.89"/>
			<rect x="338.2" y="103.001" style="fill:#F4F1E8;" width="9.88" height="9.771"/>
			<rect x="338.2" y="93.241" style="fill:#F4F1E8;" width="9.88" height="9.76"/>
			<rect x="338.2" y="83.352" style="fill:#F4F1E8;" width="9.88" height="9.89"/>
			<rect x="338.2" y="73.591" style="fill:#F4F1E8;" width="9.88" height="9.761"/>
			<rect x="328.43" y="348.121" style="fill:#689078;" width="9.771" height="9.771"/>
			<rect x="328.43" y="338.361" style="fill:#F4F1E8;" width="9.771" height="9.76"/>
			<rect x="328.43" y="328.472" style="fill:#FFFCEA;" width="9.771" height="9.89"/>
			<rect x="328.43" y="318.701" style="fill:#F4F1E8;" width="9.771" height="9.771"/>
			<rect x="328.43" y="308.941" style="fill:#F4F1E8;" width="9.771" height="9.76"/>
			<rect x="328.43" y="299.051" style="fill:#F4F1E8;" width="9.771" height="9.891"/>
			<rect x="328.43" y="289.281" style="fill:#F4F1E8;" width="9.771" height="9.77"/>
			<rect x="328.43" y="279.522" style="fill:#F4F1E8;" width="9.771" height="9.76"/>
			<rect x="328.43" y="269.631" style="fill:#F4F1E8;" width="9.771" height="9.891"/>
			<rect x="328.43" y="259.861" style="fill:#F4F1E8;" width="9.771" height="9.77"/>
			<rect x="328.43" y="250.102" style="fill:#E3DBD1;" width="9.771" height="9.76"/>
			<rect x="328.43" y="240.211" style="fill:#F4F1E8;" width="9.771" height="9.891"/>
			<rect x="328.43" y="230.451" style="fill:#F4F1E8;" width="9.771" height="9.76"/>
			<rect x="328.43" y="220.682" style="fill:#F4F1E8;" width="9.771" height="9.77"/>
			<rect x="328.43" y="210.911" style="fill:#F4F1E8;" width="9.771" height="9.771"/>
			<rect x="328.43" y="201.031" style="fill:#F4F1E8;" width="9.771" height="9.88"/>
			<rect x="328.43" y="191.261" style="fill:#F4F1E8;" width="9.771" height="9.771"/>
			<rect x="328.43" y="181.501" style="fill:#F4F1E8;" width="9.771" height="9.76"/>
			<rect x="328.43" y="171.611" style="fill:#F4F1E8;" width="9.771" height="9.89"/>
			<rect x="328.43" y="161.841" style="fill:#FFFCEA;" width="9.771" height="9.771"/>
			<rect x="328.43" y="152.081" style="fill:#E3DBD1;" width="9.771" height="9.76"/>
			<rect x="328.43" y="142.191" style="fill:#F4F1E8;" width="9.771" height="9.89"/>
			<rect x="328.43" y="132.421" style="fill:#FFFCEA;" width="9.771" height="9.771"/>
			<rect x="328.43" y="122.661" style="fill:#F4F1E8;" width="9.771" height="9.76"/>
			<rect x="328.43" y="112.771" style="fill:#F4F1E8;" width="9.771" height="9.89"/>
			<rect x="328.43" y="103.001" style="fill:#F4F1E8;" width="9.771" height="9.771"/>
			<rect x="328.43" y="93.241" style="fill:#F4F1E8;" width="9.771" height="9.76"/>
			<rect x="328.43" y="83.352" style="fill:#F4F1E8;" width="9.771" height="9.89"/>
			<rect x="328.43" y="73.591" style="fill:#F4F1E8;" width="9.771" height="9.761"/>
			<rect x="318.67" y="357.892" style="fill:#689078;" width="9.76" height="9.88"/>
			<rect x="318.67" y="348.121" style="fill:#689078;" width="9.76" height="9.771"/>
			<rect x="318.67" y="338.361" style="fill:#E3DBD1;" width="9.76" height="9.76"/>
			<rect x="318.67" y="328.472" style="fill:#F4F1E8;" width="9.76" height="9.89"/>
			<rect x="318.67" y="318.701" style="fill:#F4F1E8;" width="9.76" height="9.771"/>
			<rect x="318.67" y="308.941" style="fill:#83B07F;" width="9.76" height="9.76"/>
			<rect x="318.67" y="299.051" style="fill:#E3DBD1;" width="9.76" height="9.891"/>
			<rect x="318.67" y="289.281" style="fill:#E3DBD1;" width="9.76" height="9.77"/>
			<rect x="318.67" y="279.522" style="fill:#E3DBD1;" width="9.76" height="9.76"/>
			<rect x="318.67" y="269.631" style="fill:#E3DBD1;" width="9.76" height="9.891"/>
			<rect x="318.67" y="259.861" style="fill:#689078;" width="9.76" height="9.77"/>
			<rect x="318.67" y="250.102" style="fill:#E3DBD1;" width="9.76" height="9.76"/>
			<rect x="318.67" y="240.211" style="fill:#E3DBD1;" width="9.76" height="9.891"/>
			<rect x="318.67" y="230.451" style="fill:#F4F1E8;" width="9.76" height="9.76"/>
			<rect x="318.67" y="220.682" style="fill:#F4F1E8;" width="9.76" height="9.77"/>
			<rect x="318.67" y="210.911" style="fill:#F4F1E8;" width="9.76" height="9.771"/>
			<rect x="318.67" y="201.031" style="fill:#F4F1E8;" width="9.76" height="9.88"/>
			<rect x="318.67" y="191.261" style="fill:#F4F1E8;" width="9.76" height="9.771"/>
			<rect x="318.67" y="181.501" style="fill:#F4F1E8;" width="9.76" height="9.76"/>
			<rect x="318.67" y="171.611" style="fill:#F4F1E8;" width="9.76" height="9.89"/>
			<rect x="318.67" y="161.841" style="fill:#F4F1E8;" width="9.76" height="9.771"/>
			<rect x="318.67" y="152.081" style="fill:#E3DBD1;" width="9.76" height="9.76"/>
			<rect x="318.67" y="142.191" style="fill:#F4F1E8;" width="9.76" height="9.89"/>
			<rect x="318.67" y="132.421" style="fill:#F4F1E8;" width="9.76" height="9.771"/>
			<rect x="318.67" y="122.661" style="fill:#F4F1E8;" width="9.76" height="9.76"/>
			<rect x="318.67" y="112.771" style="fill:#F4F1E8;" width="9.76" height="9.89"/>
			<rect x="318.67" y="103.001" style="fill:#F4F1E8;" width="9.76" height="9.771"/>
			<rect x="318.67" y="93.241" style="fill:#E3DBD1;" width="9.76" height="9.76"/>
			<rect x="318.67" y="83.352" style="fill:#E3DBD1;" width="9.76" height="9.89"/>
			<rect x="308.78" y="357.892" style="fill:#689078;" width="9.89" height="9.88"/>
			<rect x="308.78" y="348.121" style="fill:#689078;" width="9.89" height="9.771"/>
			<rect x="308.78" y="338.361" style="fill:#689078;" width="9.89" height="9.76"/>
			<rect x="308.78" y="328.472" style="fill:#E3DBD1;" width="9.89" height="9.89"/>
			<rect x="308.78" y="318.701" style="fill:#83B07F;" width="9.89" height="9.771"/>
			<rect x="308.78" y="308.941" style="fill:#83B07F;" width="9.89" height="9.76"/>
			<rect x="308.78" y="299.051" style="fill:#B6C87F;" width="9.89" height="9.891"/>
			<rect x="308.78" y="269.631" style="fill:#689078;" width="9.89" height="9.891"/>
			<rect x="308.78" y="259.861" style="fill:#83B07F;" width="9.89" height="9.77"/>
			<rect x="308.78" y="240.211" style="fill:#E3DBD1;" width="9.89" height="9.891"/>
			<rect x="308.78" y="230.451" style="fill:#E3DBD1;" width="9.89" height="9.76"/>
			<rect x="308.78" y="220.682" style="fill:#F4F1E8;" width="9.89" height="9.77"/>
			<rect x="308.78" y="210.911" style="fill:#F4F1E8;" width="9.89" height="9.771"/>
			<rect x="308.78" y="201.031" style="fill:#F4F1E8;" width="9.89" height="9.88"/>
			<rect x="308.78" y="191.261" style="fill:#F4F1E8;" width="9.89" height="9.771"/>
			<rect x="308.78" y="181.501" style="fill:#F4F1E8;" width="9.89" height="9.76"/>
			<rect x="308.78" y="171.611" style="fill:#F4F1E8;" width="9.89" height="9.89"/>
			<rect x="308.78" y="161.841" style="fill:#F4F1E8;" width="9.89" height="9.771"/>
			<rect x="308.78" y="152.081" style="fill:#E3DBD1;" width="9.89" height="9.76"/>
			<rect x="308.78" y="142.191" style="fill:#E3DBD1;" width="9.89" height="9.89"/>
			<rect x="308.78" y="132.421" style="fill:#F4F1E8;" width="9.89" height="9.771"/>
			<rect x="308.78" y="112.771" style="fill:#E3DBD1;" width="9.89" height="9.89"/>
			<rect x="308.78" y="103.001" style="fill:#E3DBD1;" width="9.89" height="9.771"/>
			<rect x="308.78" y="93.241" style="fill:#689078;" width="9.89" height="9.76"/>
			<rect x="308.78" y="83.352" style="fill:#B6C87F;" width="9.89" height="9.89"/>
			<rect x="299.01" y="367.772" style="fill:#689078;" width="9.771" height="9.769"/>
			<rect x="299.01" y="357.892" style="fill:#689078;" width="9.771" height="9.88"/>
			<rect x="299.01" y="348.121" style="fill:#689078;" width="9.771" height="9.771"/>
			<rect x="299.01" y="338.361" style="fill:#83B07F;" width="9.771" height="9.76"/>
			<rect x="299.01" y="328.472" style="fill:#83B07F;" width="9.771" height="9.89"/>
			<rect x="299.01" y="318.701" style="fill:#83B07F;" width="9.771" height="9.771"/>
			<rect x="299.01" y="308.941" style="fill:#B6C87F;" width="9.771" height="9.76"/>
			<rect x="299.01" y="269.631" style="fill:#83B07F;" width="9.771" height="9.891"/>
			<rect x="299.01" y="240.211" style="fill:#FFFCEA;" width="9.771" height="9.891"/>
			<rect x="299.01" y="230.451" style="fill:#FFFCEA;" width="9.771" height="9.76"/>
			<rect x="299.01" y="220.682" style="fill:#F4F1E8;" width="9.771" height="9.77"/>
			<rect x="299.01" y="210.911" style="fill:#F4F1E8;" width="9.771" height="9.771"/>
			<rect x="299.01" y="201.031" style="fill:#F4F1E8;" width="9.771" height="9.88"/>
			<rect x="299.01" y="191.261" style="fill:#F4F1E8;" width="9.771" height="9.771"/>
			<rect x="299.01" y="181.501" style="fill:#F4F1E8;" width="9.771" height="9.76"/>
			<rect x="299.01" y="171.611" style="fill:#F4F1E8;" width="9.771" height="9.89"/>
			<rect x="299.01" y="103.001" style="fill:#689078;" width="9.771" height="9.771"/>
			<rect x="299.01" y="93.241" style="fill:#B6C87F;" width="9.771" height="9.76"/>
			<rect x="289.25" y="367.772" style="fill:#689078;" width="9.76" height="9.769"/>
			<rect x="289.25" y="357.892" style="fill:#689078;" width="9.76" height="9.88"/>
			<rect x="289.25" y="348.121" style="fill:#83B07F;" width="9.76" height="9.771"/>
			<rect x="289.25" y="338.361" style="fill:#83B07F;" width="9.76" height="9.76"/>
			<rect x="289.25" y="328.472" style="fill:#83B07F;" width="9.76" height="9.89"/>
			<rect x="289.25" y="318.701" style="fill:#B6C87F;" width="9.76" height="9.771"/>
			<rect x="289.25" y="269.631" style="fill:#83B07F;" width="9.76" height="9.891"/>
			<rect x="289.25" y="250.102" style="fill:#E3DBD1;" width="9.76" height="9.76"/>
			<rect x="289.25" y="240.211" style="fill:#F4F1E8;" width="9.76" height="9.891"/>
			<rect x="289.25" y="230.451" style="fill:#F4F1E8;" width="9.76" height="9.76"/>
			<rect x="289.25" y="220.682" style="fill:#F4F1E8;" width="9.76" height="9.77"/>
			<rect x="289.25" y="210.911" style="fill:#E3DBD1;" width="9.76" height="9.771"/>
			<rect x="289.25" y="201.031" style="fill:#E3DBD1;" width="9.76" height="9.88"/>
			<rect x="289.25" y="191.261" style="fill:#E3DBD1;" width="9.76" height="9.771"/>
			<rect x="289.25" y="181.501" style="fill:#E3DBD1;" width="9.76" height="9.76"/>
			<rect x="289.25" y="171.611" style="fill:#E3DBD1;" width="9.76" height="9.89"/>
			<rect x="289.25" y="112.771" style="fill:#689078;" width="9.76" height="9.89"/>
			<rect x="289.25" y="103.001" style="fill:#83B07F;" width="9.76" height="9.771"/>
			<rect x="279.48" y="377.541" style="fill:#689078;" width="9.77" height="9.771"/>
			<rect x="279.48" y="367.772" style="fill:#689078;" width="9.77" height="9.769"/>
			<rect x="279.48" y="357.892" style="fill:#83B07F;" width="9.77" height="9.88"/>
			<rect x="279.48" y="348.121" style="fill:#83B07F;" width="9.77" height="9.771"/>
			<rect x="279.48" y="338.361" style="fill:#83B07F;" width="9.77" height="9.76"/>
			<rect x="279.48" y="328.472" style="fill:#B6C87F;" width="9.77" height="9.89"/>
			<rect x="279.48" y="279.522" style="fill:#689078;" width="9.77" height="9.76"/>
			<rect x="279.48" y="269.631" style="fill:#83B07F;" width="9.77" height="9.891"/>
			<rect x="279.48" y="240.211" style="fill:#E3DBD1;" width="9.77" height="9.891"/>
			<rect x="279.48" y="230.451" style="fill:#E3DBD1;" width="9.77" height="9.76"/>
			<rect x="279.48" y="191.261" style="fill:#689078;" width="9.77" height="9.771"/>
			<rect x="279.48" y="181.501" style="fill:#B6C87F;" width="9.77" height="9.76"/>
			<rect x="279.48" y="122.661" style="fill:#689078;" width="9.77" height="9.76"/>
			<rect x="279.48" y="112.771" style="fill:#83B07F;" width="9.77" height="9.89"/>
			<rect x="269.59" y="397.071" style="fill:#689078;" width="9.891" height="9.89"/>
			<rect x="269.59" y="387.311" style="fill:#689078;" width="9.891" height="9.76"/>
			<rect x="269.59" y="377.541" style="fill:#689078;" width="9.891" height="9.771"/>
			<rect x="269.59" y="367.772" style="fill:#83B07F;" width="9.891" height="9.769"/>
			<rect x="269.59" y="357.892" style="fill:#83B07F;" width="9.891" height="9.88"/>
			<rect x="269.59" y="348.121" style="fill:#83B07F;" width="9.891" height="9.771"/>
			<rect x="269.59" y="279.522" style="fill:#83B07F;" width="9.891" height="9.76"/>
			<rect x="269.59" y="201.031" style="fill:#689078;" width="9.891" height="9.88"/>
			<rect x="269.59" y="191.261" style="fill:#B6C87F;" width="9.891" height="9.771"/>
			<rect x="269.59" y="142.191" style="fill:#689078;" width="9.891" height="9.89"/>
			<rect x="269.59" y="132.421" style="fill:#83B07F;" width="9.891" height="9.771"/>
			<rect x="269.59" y="122.661" style="fill:#83B07F;" width="9.891" height="9.76"/>
			<rect x="259.83" y="426.491" style="fill:#689078;" width="9.76" height="9.891"/>
			<rect x="259.83" y="416.731" style="fill:#689078;" width="9.76" height="9.76"/>
			<rect x="259.83" y="406.961" style="fill:#689078;" width="9.76" height="9.77"/>
			<rect x="259.83" y="397.071" style="fill:#689078;" width="9.76" height="9.89"/>
			<rect x="259.83" y="387.311" style="fill:#689078;" width="9.76" height="9.76"/>
			<rect x="259.83" y="377.541" style="fill:#83B07F;" width="9.76" height="9.771"/>
			<rect x="259.83" y="367.772" style="fill:#83B07F;" width="9.76" height="9.769"/>
			<rect x="259.83" y="357.892" style="fill:#83B07F;" width="9.76" height="9.88"/>
			<rect x="259.83" y="289.281" style="fill:#83B07F;" width="9.76" height="9.77"/>
			<rect x="259.83" y="279.522" style="fill:#83B07F;" width="9.76" height="9.76"/>
			<rect x="259.83" y="210.911" style="fill:#689078;" width="9.76" height="9.771"/>
			<rect x="259.83" y="201.031" style="fill:#83B07F;" width="9.76" height="9.88"/>
			<rect x="259.83" y="152.081" style="fill:#689078;" width="9.76" height="9.76"/>
			<rect x="259.83" y="142.191" style="fill:#83B07F;" width="9.76" height="9.89"/>
			<rect x="250.061" y="416.731" style="fill:#689078;" width="9.769" height="9.76"/>
			<rect x="250.061" y="406.961" style="fill:#689078;" width="9.769" height="9.77"/>
			<rect x="250.061" y="397.071" style="fill:#689078;" width="9.769" height="9.89"/>
			<rect x="250.061" y="387.311" style="fill:#689078;" width="9.769" height="9.76"/>
			<rect x="250.061" y="377.541" style="fill:#689078;" width="9.769" height="9.771"/>
			<rect x="250.061" y="367.772" style="fill:#689078;" width="9.769" height="9.769"/>
			<rect x="250.061" y="299.051" style="fill:#689078;" width="9.769" height="9.891"/>
			<rect x="250.061" y="289.281" style="fill:#83B07F;" width="9.769" height="9.77"/>
			<rect x="250.061" y="230.451" style="fill:#689078;" width="9.769" height="9.76"/>
			<rect x="250.061" y="220.682" style="fill:#83B07F;" width="9.769" height="9.77"/>
			<rect x="250.061" y="210.911" style="fill:#83B07F;" width="9.769" height="9.771"/>
			<rect x="250.061" y="181.501" style="fill:#689078;" width="9.769" height="9.76"/>
			<rect x="250.061" y="171.611" style="fill:#83B07F;" width="9.769" height="9.89"/>
			<rect x="250.061" y="161.841" style="fill:#83B07F;" width="9.769" height="9.771"/>
			<rect x="240.17" y="406.961" style="fill:#689078;" width="9.891" height="9.77"/>
			<rect x="240.17" y="397.071" style="fill:#689078;" width="9.891" height="9.89"/>
			<rect x="240.17" y="387.311" style="fill:#689078;" width="9.891" height="9.76"/>
			<rect x="240.17" y="377.541" style="fill:#689078;" width="9.891" height="9.771"/>
			<rect x="240.17" y="367.772" style="fill:#689078;" width="9.891" height="9.769"/>
			<rect x="240.17" y="357.892" style="fill:#689078;" width="9.891" height="9.88"/>
			<rect x="240.17" y="348.121" style="fill:#83B07F;" width="9.891" height="9.771"/>
			<rect x="240.17" y="338.361" style="fill:#83B07F;" width="9.891" height="9.76"/>
			<rect x="240.17" y="328.472" style="fill:#83B07F;" width="9.891" height="9.89"/>
			<rect x="240.17" y="318.701" style="fill:#689078;" width="9.891" height="9.771"/>
			<rect x="240.17" y="308.941" style="fill:#689078;" width="9.891" height="9.76"/>
			<rect x="240.17" y="299.051" style="fill:#689078;" width="9.891" height="9.891"/>
			<rect x="240.17" y="240.211" style="fill:#689078;" width="9.891" height="9.891"/>
			<rect x="240.17" y="230.451" style="fill:#83B07F;" width="9.891" height="9.76"/>
			<rect x="240.17" y="201.031" style="fill:#689078;" width="9.891" height="9.88"/>
			<rect x="240.17" y="191.261" style="fill:#83B07F;" width="9.891" height="9.771"/>
			<rect x="240.17" y="181.501" style="fill:#83B07F;" width="9.891" height="9.76"/>
			<rect x="230.41" y="397.071" style="fill:#689078;" width="9.76" height="9.89"/>
			<rect x="230.41" y="387.311" style="fill:#689078;" width="9.76" height="9.76"/>
			<rect x="230.41" y="377.541" style="fill:#689078;" width="9.76" height="9.771"/>
			<rect x="230.41" y="367.772" style="fill:#83B07F;" width="9.76" height="9.769"/>
			<rect x="230.41" y="357.892" style="fill:#689078;" width="9.76" height="9.88"/>
			<rect x="230.41" y="348.121" style="fill:#689078;" width="9.76" height="9.771"/>
			<rect x="230.41" y="338.361" style="fill:#689078;" width="9.76" height="9.76"/>
			<rect x="230.41" y="328.472" style="fill:#83B07F;" width="9.76" height="9.89"/>
			<rect x="230.41" y="318.701" style="fill:#83B07F;" width="9.76" height="9.771"/>
			<rect x="230.41" y="308.941" style="fill:#83B07F;" width="9.76" height="9.76"/>
			<rect x="230.41" y="299.051" style="fill:#83B07F;" width="9.76" height="9.891"/>
			<rect x="230.41" y="289.281" style="fill:#83B07F;" width="9.76" height="9.77"/>
			<rect x="230.41" y="279.522" style="fill:#83B07F;" width="9.76" height="9.76"/>
			<rect x="230.41" y="269.631" style="fill:#689078;" width="9.76" height="9.891"/>
			<rect x="230.41" y="259.861" style="fill:#689078;" width="9.76" height="9.77"/>
			<rect x="230.41" y="250.102" style="fill:#689078;" width="9.76" height="9.76"/>
			<rect x="230.41" y="240.211" style="fill:#83B07F;" width="9.76" height="9.891"/>
			<rect x="230.41" y="230.451" style="fill:#83B07F;" width="9.76" height="9.76"/>
			<rect x="230.41" y="220.682" style="fill:#689078;" width="9.76" height="9.77"/>
			<rect x="230.41" y="210.911" style="fill:#83B07F;" width="9.76" height="9.771"/>
			<rect x="220.64" y="387.311" style="fill:#689078;" width="9.771" height="9.76"/>
			<rect x="220.64" y="377.541" style="fill:#689078;" width="9.771" height="9.771"/>
			<rect x="220.64" y="367.772" style="fill:#689078;" width="9.771" height="9.769"/>
			<rect x="220.64" y="357.892" style="fill:#83B07F;" width="9.771" height="9.88"/>
			<rect x="220.64" y="348.121" style="fill:#689078;" width="9.771" height="9.771"/>
			<rect x="220.64" y="338.361" style="fill:#689078;" width="9.771" height="9.76"/>
			<rect x="220.64" y="328.472" style="fill:#689078;" width="9.771" height="9.89"/>
			<rect x="220.64" y="318.701" style="fill:#689078;" width="9.771" height="9.771"/>
			<rect x="220.64" y="308.941" style="fill:#83B07F;" width="9.771" height="9.76"/>
			<rect x="220.64" y="299.051" style="fill:#83B07F;" width="9.771" height="9.891"/>
			<rect x="220.64" y="289.281" style="fill:#83B07F;" width="9.771" height="9.77"/>
			<rect x="220.64" y="279.522" style="fill:#83B07F;" width="9.771" height="9.76"/>
			<rect x="220.64" y="269.631" style="fill:#83B07F;" width="9.771" height="9.891"/>
			<rect x="210.75" y="377.541" style="fill:#689078;" width="9.89" height="9.771"/>
			<rect x="210.75" y="367.772" style="fill:#689078;" width="9.89" height="9.769"/>
			<rect x="210.75" y="357.892" style="fill:#83B07F;" width="9.89" height="9.88"/>
			<rect x="210.75" y="348.121" style="fill:#83B07F;" width="9.89" height="9.771"/>
			<rect x="210.75" y="338.361" style="fill:#83B07F;" width="9.89" height="9.76"/>
			<rect x="210.75" y="328.472" style="fill:#689078;" width="9.89" height="9.89"/>
			<rect x="210.75" y="318.701" style="fill:#689078;" width="9.89" height="9.771"/>
			<rect x="210.75" y="308.941" style="fill:#689078;" width="9.89" height="9.76"/>
			<rect x="210.75" y="299.051" style="fill:#689078;" width="9.89" height="9.891"/>
			<rect x="210.75" y="289.281" style="fill:#83B07F;" width="9.89" height="9.77"/>
			<rect x="210.75" y="279.522" style="fill:#83B07F;" width="9.89" height="9.76"/>
			<rect x="210.75" y="269.631" style="fill:#83B07F;" width="9.89" height="9.891"/>
			<rect x="210.75" y="259.861" style="fill:#B6C87F;" width="9.89" height="9.77"/>
			<rect x="200.99" y="377.541" style="fill:#689078;" width="9.76" height="9.771"/>
			<rect x="200.99" y="367.772" style="fill:#689078;" width="9.76" height="9.769"/>
			<rect x="200.99" y="357.892" style="fill:#689078;" width="9.76" height="9.88"/>
			<rect x="200.99" y="348.121" style="fill:#83B07F;" width="9.76" height="9.771"/>
			<rect x="200.99" y="338.361" style="fill:#83B07F;" width="9.76" height="9.76"/>
			<rect x="200.99" y="328.472" style="fill:#83B07F;" width="9.76" height="9.89"/>
			<rect x="200.99" y="318.701" style="fill:#689078;" width="9.76" height="9.771"/>
			<rect x="200.99" y="308.941" style="fill:#689078;" width="9.76" height="9.76"/>
			<rect x="200.99" y="299.051" style="fill:#689078;" width="9.76" height="9.891"/>
			<rect x="200.99" y="289.281" style="fill:#689078;" width="9.76" height="9.77"/>
			<rect x="200.99" y="279.522" style="fill:#83B07F;" width="9.76" height="9.76"/>
			<rect x="200.99" y="269.631" style="fill:#83B07F;" width="9.76" height="9.891"/>
			<rect x="200.99" y="259.861" style="fill:#83B07F;" width="9.76" height="9.77"/>
			<rect x="200.99" y="250.102" style="fill:#83B07F;" width="9.76" height="9.76"/>
			<rect x="200.99" y="240.211" style="fill:#B6C87F;" width="9.76" height="9.891"/>
			<rect x="191.22" y="367.772" style="fill:#689078;" width="9.771" height="9.769"/>
			<rect x="191.22" y="357.892" style="fill:#689078;" width="9.771" height="9.88"/>
			<rect x="191.22" y="348.121" style="fill:#689078;" width="9.771" height="9.771"/>
			<rect x="191.22" y="338.361" style="fill:#83B07F;" width="9.771" height="9.76"/>
			<rect x="191.22" y="328.472" style="fill:#83B07F;" width="9.771" height="9.89"/>
			<rect x="191.22" y="318.701" style="fill:#83B07F;" width="9.771" height="9.771"/>
			<rect x="191.22" y="308.941" style="fill:#689078;" width="9.771" height="9.76"/>
			<rect x="191.22" y="299.051" style="fill:#689078;" width="9.771" height="9.891"/>
			<rect x="191.22" y="289.281" style="fill:#689078;" width="9.771" height="9.77"/>
			<rect x="191.22" y="279.522" style="fill:#689078;" width="9.771" height="9.76"/>
			<rect x="191.22" y="269.631" style="fill:#689078;" width="9.771" height="9.891"/>
			<rect x="191.22" y="259.861" style="fill:#83B07F;" width="9.771" height="9.77"/>
			<rect x="191.22" y="250.102" style="fill:#83B07F;" width="9.771" height="9.76"/>
			<rect x="191.22" y="240.211" style="fill:#83B07F;" width="9.771" height="9.891"/>
			<rect x="191.22" y="230.451" style="fill:#B6C87F;" width="9.771" height="9.76"/>
			<rect x="181.34" y="367.772" style="fill:#689078;" width="9.88" height="9.769"/>
			<rect x="181.34" y="357.892" style="fill:#689078;" width="9.88" height="9.88"/>
			<rect x="181.34" y="348.121" style="fill:#689078;" width="9.88" height="9.771"/>
			<rect x="181.34" y="338.361" style="fill:#689078;" width="9.88" height="9.76"/>
			<rect x="181.34" y="328.472" style="fill:#83B07F;" width="9.88" height="9.89"/>
			<rect x="181.34" y="318.701" style="fill:#83B07F;" width="9.88" height="9.771"/>
			<rect x="181.34" y="299.051" style="fill:#689078;" width="9.88" height="9.891"/>
			<rect x="181.34" y="289.281" style="fill:#689078;" width="9.88" height="9.77"/>
			<rect x="181.34" y="279.522" style="fill:#689078;" width="9.88" height="9.76"/>
			<rect x="181.34" y="269.631" style="fill:#689078;" width="9.88" height="9.891"/>
			<rect x="181.34" y="259.861" style="fill:#689078;" width="9.88" height="9.77"/>
			<rect x="181.34" y="250.102" style="fill:#83B07F;" width="9.88" height="9.76"/>
			<rect x="181.34" y="240.211" style="fill:#83B07F;" width="9.88" height="9.891"/>
			<rect x="181.34" y="230.451" style="fill:#83B07F;" width="9.88" height="9.76"/>
			<rect x="181.34" y="220.682" style="fill:#B6C87F;" width="9.88" height="9.77"/>
			<rect x="171.57" y="357.892" style="fill:#689078;" width="9.77" height="9.88"/>
			<rect x="171.57" y="348.121" style="fill:#689078;" width="9.77" height="9.771"/>
			<rect x="171.57" y="338.361" style="fill:#689078;" width="9.77" height="9.76"/>
			<rect x="171.57" y="328.472" style="fill:#83B07F;" width="9.77" height="9.89"/>
			<rect x="171.57" y="318.701" style="fill:#83B07F;" width="9.77" height="9.771"/>
			<rect x="171.57" y="308.941" style="fill:#83B07F;" width="9.77" height="9.76"/>
			<rect x="171.57" y="279.522" style="fill:#689078;" width="9.77" height="9.76"/>
			<rect x="171.57" y="269.631" style="fill:#689078;" width="9.77" height="9.891"/>
			<rect x="171.57" y="259.861" style="fill:#689078;" width="9.77" height="9.77"/>
			<rect x="171.57" y="250.102" style="fill:#689078;" width="9.77" height="9.76"/>
			<rect x="171.57" y="240.211" style="fill:#83B07F;" width="9.77" height="9.891"/>
			<rect x="171.57" y="230.451" style="fill:#83B07F;" width="9.77" height="9.76"/>
			<rect x="171.57" y="220.682" style="fill:#83B07F;" width="9.77" height="9.77"/>
			<rect x="171.57" y="210.911" style="fill:#B6C87F;" width="9.77" height="9.771"/>
			<rect x="161.8" y="357.892" style="fill:#689078;" width="9.771" height="9.88"/>
			<rect x="161.8" y="348.121" style="fill:#689078;" width="9.771" height="9.771"/>
			<rect x="161.8" y="338.361" style="fill:#689078;" width="9.771" height="9.76"/>
			<rect x="161.8" y="328.472" style="fill:#689078;" width="9.771" height="9.89"/>
			<rect x="161.8" y="318.701" style="fill:#83B07F;" width="9.771" height="9.771"/>
			<rect x="161.8" y="308.941" style="fill:#83B07F;" width="9.771" height="9.76"/>
			<rect x="161.8" y="299.051" style="fill:#B6C87F;" width="9.771" height="9.891"/>
			<rect x="161.8" y="259.861" style="fill:#689078;" width="9.771" height="9.77"/>
			<rect x="161.8" y="250.102" style="fill:#689078;" width="9.771" height="9.76"/>
			<rect x="161.8" y="240.211" style="fill:#689078;" width="9.771" height="9.891"/>
			<rect x="161.8" y="230.451" style="fill:#83B07F;" width="9.771" height="9.76"/>
			<rect x="161.8" y="220.682" style="fill:#83B07F;" width="9.771" height="9.77"/>
			<rect x="161.8" y="210.911" style="fill:#B6C87F;" width="9.771" height="9.771"/>
			<rect x="151.92" y="348.121" style="fill:#689078;" width="9.88" height="9.771"/>
			<rect x="151.92" y="338.361" style="fill:#689078;" width="9.88" height="9.76"/>
			<rect x="151.92" y="328.472" style="fill:#689078;" width="9.88" height="9.89"/>
			<rect x="151.92" y="318.701" style="fill:#83B07F;" width="9.88" height="9.771"/>
			<rect x="151.92" y="308.941" style="fill:#83B07F;" width="9.88" height="9.76"/>
			<rect x="151.92" y="299.051" style="fill:#B6C87F;" width="9.88" height="9.891"/>
			<rect x="151.92" y="240.211" style="fill:#689078;" width="9.88" height="9.891"/>
			<rect x="151.92" y="230.451" style="fill:#689078;" width="9.88" height="9.76"/>
			<rect x="151.92" y="220.682" style="fill:#689078;" width="9.88" height="9.77"/>
			<rect x="151.92" y="210.911" style="fill:#83B07F;" width="9.88" height="9.771"/>
			<rect x="151.92" y="201.031" style="fill:#B6C87F;" width="9.88" height="9.88"/>
			<rect x="142.15" y="348.121" style="fill:#689078;" width="9.769" height="9.771"/>
			<rect x="142.15" y="338.361" style="fill:#689078;" width="9.769" height="9.76"/>
			<rect x="142.15" y="328.472" style="fill:#689078;" width="9.769" height="9.89"/>
			<rect x="142.15" y="318.701" style="fill:#83B07F;" width="9.769" height="9.771"/>
			<rect x="142.15" y="308.941" style="fill:#83B07F;" width="9.769" height="9.76"/>
			<rect x="142.15" y="299.051" style="fill:#B6C87F;" width="9.769" height="9.891"/>
			<rect x="142.15" y="220.682" style="fill:#689078;" width="9.769" height="9.77"/>
			<rect x="142.15" y="210.911" style="fill:#689078;" width="9.769" height="9.771"/>
			<rect x="142.15" y="201.031" style="fill:#83B07F;" width="9.769" height="9.88"/>
			<rect x="142.15" y="191.261" style="fill:#B6C87F;" width="9.769" height="9.771"/>
			<rect x="132.39" y="348.121" style="fill:#689078;" width="9.761" height="9.771"/>
			<rect x="132.39" y="338.361" style="fill:#689078;" width="9.761" height="9.76"/>
			<rect x="132.39" y="328.472" style="fill:#689078;" width="9.761" height="9.89"/>
			<rect x="132.39" y="318.701" style="fill:#83B07F;" width="9.761" height="9.771"/>
			<rect x="132.39" y="308.941" style="fill:#83B07F;" width="9.761" height="9.76"/>
			<rect x="132.39" y="299.051" style="fill:#B6C87F;" width="9.761" height="9.891"/>
			<rect x="132.39" y="201.031" style="fill:#689078;" width="9.761" height="9.88"/>
			<rect x="132.39" y="191.261" style="fill:#83B07F;" width="9.761" height="9.771"/>
			<rect x="132.39" y="181.501" style="fill:#B6C87F;" width="9.761" height="9.76"/>
			<rect x="122.62" y="338.361" style="fill:#689078;" width="9.77" height="9.76"/>
			<rect x="122.62" y="328.472" style="fill:#689078;" width="9.77" height="9.89"/>
			<rect x="122.62" y="318.701" style="fill:#83B07F;" width="9.77" height="9.771"/>
			<rect x="122.62" y="308.941" style="fill:#83B07F;" width="9.77" height="9.76"/>
			<rect x="122.62" y="299.051" style="fill:#B6C87F;" width="9.77" height="9.891"/>
			<rect x="122.62" y="191.261" style="fill:#689078;" width="9.77" height="9.771"/>
			<rect x="122.62" y="181.501" style="fill:#B6C87F;" width="9.77" height="9.76"/>
			<rect x="112.73" y="338.361" style="fill:#689078;" width="9.89" height="9.76"/>
			<rect x="112.73" y="328.472" style="fill:#689078;" width="9.89" height="9.89"/>
			<rect x="112.73" y="318.701" style="fill:#83B07F;" width="9.89" height="9.771"/>
			<rect x="112.73" y="308.941" style="fill:#83B07F;" width="9.89" height="9.76"/>
			<rect x="112.73" y="299.051" style="fill:#B6C87F;" width="9.89" height="9.891"/>
			<rect x="112.73" y="181.501" style="fill:#689078;" width="9.89" height="9.76"/>
			<rect x="102.97" y="338.361" style="fill:#689078;" width="9.761" height="9.76"/>
			<rect x="102.97" y="328.472" style="fill:#83B07F;" width="9.761" height="9.89"/>
			<rect x="102.97" y="318.701" style="fill:#83B07F;" width="9.761" height="9.771"/>
			<rect x="102.97" y="308.941" style="fill:#B6C87F;" width="9.761" height="9.76"/>
			<rect x="93.2" y="338.361" style="fill:#689078;" width="9.77" height="9.76"/>
			<rect x="93.2" y="328.472" style="fill:#83B07F;" width="9.77" height="9.89"/>
			<rect x="93.2" y="318.701" style="fill:#B6C87F;" width="9.77" height="9.771"/>
			<rect x="83.311" y="338.361" style="fill:#689078;" width="9.89" height="9.76"/>
			<rect x="83.311" y="328.472" style="fill:#B6C87F;" width="9.89" height="9.89"/>
			<rect x="73.55" y="338.361" style="fill:#B6C87F;" width="9.761" height="9.76"/>
		</g>
	</g>
</g>
</svg>
